<svg width="203" height="136" viewBox="0 0 203 136" fill="none" xmlns="http://www.w3.org/2000/svg">
<g clip-path="url(#clip0_3_26)">
<path d="M202.984 48.3691C203.005 48.18 203.005 47.989 202.984 47.7999C203.004 47.6459 203.004 47.4888 202.984 47.3345L201.48 34.0398C201.264 32.4492 200.683 30.9626 199.805 29.7462L199.547 29.3841L199.075 28.815L173.041 1.81186L173.771 2.69134C173.173 1.83054 172.423 1.14201 171.576 0.676474C170.728 0.210937 169.805 -0.0197768 168.873 0.00135122H160.969C159.683 -0.0293152 158.427 0.462788 157.403 1.39809C156.327 0.468421 155.032 -0.0211643 153.708 0.00135122H145.803C144.767 -0.0189028 143.744 0.29092 142.839 0.899541C141.933 1.50816 141.178 2.39397 140.648 3.46725C139.832 5.00021 139.525 6.84719 139.789 8.64028L140.777 17.0205C140.122 16.5737 139.381 16.3419 138.629 16.3481H100.351C98.9777 16.3585 97.6359 16.8432 96.4845 17.7448C95.3711 18.584 94.4773 19.7856 93.907 21.2107L90.9426 18.1586C89.7759 16.8588 88.2359 16.1542 86.6466 16.1929H26.5876C25.2094 16.2231 23.8617 16.6868 22.6783 17.5379C21.0592 18.679 19.8726 20.5344 19.3702 22.7109L0.295703 99.5302C-0.0606976 100.796 -0.0957577 102.161 0.195014 103.451C0.485785 104.741 1.08922 105.897 1.92823 106.773C2.14685 106.996 2.3764 107.203 2.61561 107.393C2.61561 107.393 2.22891 107.083 2.0141 106.824L28.0484 133.879C29.1497 135.1 30.5896 135.782 32.0864 135.793H92.6182C94.0006 135.75 95.3491 135.268 96.5276 134.396C97.1941 133.958 97.7905 133.38 98.2889 132.689L98.5038 132.327L98.8475 131.81L99.1052 131.241L101.941 134.189C103.026 135.362 104.435 136.007 105.893 136H166.553C167.934 135.945 169.28 135.464 170.463 134.603C171.114 134.138 171.707 133.563 172.224 132.896L172.439 132.534L172.783 132.017C172.965 131.689 173.124 131.343 173.255 130.982C173.396 130.668 173.511 130.339 173.599 129.999L190.998 59.8533V59.2324C191.019 58.9917 191.019 58.7489 190.998 58.5082V58.0428C191.019 57.8884 191.019 57.7313 190.998 57.577C191.017 57.2499 191.017 56.9214 190.998 56.594H196.583C197.069 56.6477 197.558 56.6477 198.043 56.594H198.43C198.745 56.4811 199.047 56.3247 199.332 56.1286H199.762L200.535 55.4044L200.879 55.0939L201.48 54.1627V53.8526L201.91 52.973C201.886 52.802 201.886 52.6269 201.91 52.4559C201.887 52.3719 201.887 52.2811 201.91 52.1971C202.001 51.8939 202.073 51.5824 202.125 51.2659C202.105 51.1639 202.105 51.0575 202.125 50.9555C202.104 50.8014 202.104 50.644 202.125 50.49C202.125 50.49 202.984 48.4724 202.984 48.3691Z" fill="black"/>
<path d="M88.408 22.0902C88.6361 22.3386 88.7954 22.6651 88.8644 23.0259C88.9338 23.3866 88.9093 23.7642 88.7948 24.1077L69.7633 100.875C69.5236 101.713 69.0333 102.414 68.3885 102.841C67.8638 103.264 67.2565 103.513 66.6269 103.565H6.13846C5.62188 103.535 5.13248 103.278 4.7637 102.841C4.54432 102.597 4.39035 102.279 4.32147 101.929C4.25259 101.579 4.27199 101.212 4.37707 100.875L23.4516 24.1077C23.6714 23.259 24.1463 22.5396 24.7834 22.0902C25.3167 21.698 25.9211 21.4672 26.5448 21.4177H87.0332C87.5458 21.4237 88.0372 21.6641 88.408 22.0902ZM56.8319 85.408L68.2165 39.575H36.3399L24.9981 85.408H56.8319ZM146.147 22.8662C146.353 23.155 146.611 23.384 146.902 23.5362C147.192 23.6885 147.506 23.7601 147.823 23.7456H155.684C155.984 23.7491 156.279 23.6607 156.542 23.4887C156.805 23.3168 157.027 23.0669 157.188 22.7627C157.328 22.5251 157.426 22.2561 157.478 21.9718C157.529 21.6874 157.533 21.3935 157.489 21.1074L155.942 7.4506C155.795 6.81854 155.53 6.23489 155.169 5.74349C154.962 5.4547 154.705 5.22567 154.415 5.07342C154.124 4.92117 153.809 4.84963 153.493 4.86408H145.632C145.332 4.86058 145.037 4.94898 144.774 5.12095C144.511 5.29292 144.289 5.54279 144.128 5.84699C143.827 6.57119 143.698 7.03675 143.827 7.4506L145.417 21.1074C145.498 21.7723 145.754 22.3885 146.147 22.8662ZM171.107 7.34713C170.96 6.71504 170.695 6.1314 170.334 5.64003C170.136 5.35229 169.886 5.12333 169.603 4.97081C169.32 4.81832 169.011 4.74637 168.702 4.76062H160.797C160.502 4.75052 160.211 4.83654 159.954 5.00957C159.697 5.18259 159.483 5.43623 159.336 5.74349C159.05 6.20242 158.926 6.77889 158.992 7.34713L160.582 21.0039C160.682 21.6618 160.935 22.2719 161.312 22.7627C161.522 23.0459 161.781 23.271 162.07 23.4228C162.359 23.5746 162.672 23.6494 162.988 23.6421H170.893C171.186 23.6468 171.476 23.5585 171.732 23.386C171.988 23.2134 172.203 22.9629 172.353 22.6593C172.503 22.4278 172.607 22.159 172.659 21.8725C172.711 21.5861 172.709 21.2893 172.654 21.0039L171.107 7.34713ZM139.23 28.0392L138.457 21.3143H100.351C99.7528 21.354 99.174 21.5862 98.6755 21.9868C98.3592 22.1945 98.0837 22.4825 97.8686 22.8308C97.6538 23.1791 97.5041 23.5794 97.4299 24.0042L94.2507 36.8332C94.1238 37.1538 94.0804 37.5136 94.1264 37.8644C94.1726 38.2153 94.3057 38.541 94.5084 38.7991C94.8707 39.2091 95.3435 39.4482 95.8403 39.4716H142.152L130.767 85.3046H84.5845C83.989 85.321 83.4091 85.5358 82.9092 85.9251C82.3016 86.3899 81.8578 87.1083 81.6633 87.9427L78.4412 100.772C78.3361 101.101 78.3084 101.459 78.3614 101.806C78.4147 102.153 78.5461 102.475 78.7418 102.737C79.0928 103.175 79.5693 103.434 80.0737 103.462H140.734C141.361 103.397 141.966 103.148 142.495 102.737C143.13 102.308 143.606 101.606 143.827 100.772L161.269 30.6257H141.636C141.325 30.6331 141.015 30.5635 140.727 30.4211C140.439 30.2787 140.178 30.0666 139.961 29.798C139.606 29.3289 139.354 28.7596 139.23 28.1427V28.0392Z" fill="white"/>
</g>
<defs>
<clipPath id="clip0_3_26">
<rect width="203" height="136" fill="white"/>
</clipPath>
</defs>
</svg>
